# xmcd
#
# Track frame offsets:
#	150
#	24737
#	46942
#	72420
#	95770
#	118175
#	135750
#	162050
#
# Disc length: 2569 seconds
#
# Revision: 1
# Processed by: cddbd v1.5.1PL0 Copyright (c) Steve Scherf et al.
# Submitted via: audiograbber 1.83.01
#
DISCID=660a0708
DTITLE=Holland, Paul and The Supafuzz - Pornomusic
DYEAR=1998
DGENRE=Blues
TTITLE0=Smoke and Mirrors
TTITLE1=Devil In My Head
TTITLE2=The Curse
TTITLE3=Dear Prudence
TTITLE4=Tall Glass Of Alone
TTITLE5=How Do You Like Me Know
TTITLE6=Rising
TTITLE7=Ballast
EXTD=
EXTT0=
EXTT1=
EXTT2=
EXTT3=
EXTT4=
EXTT5=
EXTT6=
EXTT7=
PLAYORDER=
